# xmcd
#
# Track frame offsets: 
#        150
#        18659
#        35050
#        52618
#        70335
#        80453
#        90646
#        100456
#        113187
#        126111
#        139599
#        154374
#        166644
#        178614
#        190695
#        209432
#        225937
#        243583
#        261370
#        271537
#        281149
#
# Disc length: 3879 seconds
#
# Revision: 0
# Processed by: cddbd v1.5.2PL0 Copyright (c) Steve Scherf et al.
# Submitted via: ExactAudioCopy v0.95b4
#
DISCID=200f2515
DTITLE=Polk Miller and the Old South Quartette - Music of the Old South
DYEAR=2006
DGENRE=Blues
TTITLE0=The Bonnie Blue Flag
TTITLE1=Oysters and Wine at 2 A.M.
TTITLE2=What A Time
TTITLE3=Watermelon Party
TTITLE4=Rise And Shine
TTITLE5=The "Old Time" Religion
TTITLE6=Jerusalem Mournin'
TTITLE7=Oh What He's Done For Me
TTITLE8=Watermelon Party (2)
TTITLE9=Tobias and Keechungus
TTITLE10=Oysters and Wine at 2 A.M. (2)
TTITLE11=Pussy Cat Rag
TTITLE12=When De Corn Pone's Hot
TTITLE13=No Hiding Place Down Here
TTITLE14=The Bonnie Blue Flag (digitally remastered version)
TTITLE15=Oysters and Wine at 2 A.M. (digitally remastered version)
TTITLE16=What A Time (digitally remastered version)
TTITLE17=Watermelon Party (digitally remastered version)
TTITLE18=Rise And Shine (digitally remastered version)
TTITLE19=The "Old Time" Religion (digitally remastered version)
TTITLE20=Jerusalem Mournin' (digitally remastered version)
EXTD=
EXTT0=
EXTT1=
EXTT2=
EXTT3=
EXTT4=
EXTT5=
EXTT6=
EXTT7=
EXTT8=
EXTT9=
EXTT10=
EXTT11=
EXTT12=
EXTT13=
EXTT14=
EXTT15=
EXTT16=
EXTT17=
EXTT18=
EXTT19=
EXTT20=
PLAYORDER=
